<svg width="42" height="42" viewBox="0 0 42 42" fill="none" xmlns="http://www.w3.org/2000/svg">
<path d="M23.0205 36.2197C23.0205 36.6315 23.0563 37.0254 23.1279 37.4014C23.2174 37.7594 23.3786 38.0728 23.6113 38.3413C23.862 38.6099 24.1932 38.8247 24.605 38.9858C25.0347 39.147 25.5897 39.2275 26.27 39.2275C27.2547 39.2275 28.1589 38.95 28.9824 38.395C29.806 37.8221 30.5132 37.097 31.104 36.2197C31.6948 35.3245 32.1514 34.3309 32.4736 33.2388C32.7959 32.1287 32.957 31.0277 32.957 29.9355C32.957 28.3063 32.7332 26.874 32.2856 25.6387C31.856 24.3854 31.2472 23.3291 30.4595 22.4697C29.6717 21.6104 28.7407 20.9479 27.6665 20.4824C26.5923 19.999 25.4285 19.7215 24.1753 19.6499L24.7124 18.2803C25.5002 18.3161 26.2521 18.2087 26.9683 17.958C27.6844 17.7074 28.311 17.2687 28.8481 16.6421C29.4032 16.0155 29.8418 15.174 30.1641 14.1177C30.4863 13.0435 30.6475 11.7007 30.6475 10.0894C30.6475 8.99723 30.5132 8.01253 30.2446 7.13525C29.9761 6.25798 29.618 5.52393 29.1704 4.93311C28.7407 4.32438 28.2305 3.85889 27.6396 3.53662C27.0667 3.21436 26.4759 3.05322 25.8672 3.05322C25.4912 3.05322 25.1242 3.09798 24.7661 3.1875C24.4259 3.27702 24.1216 3.4292 23.853 3.64404C23.6024 3.85889 23.3965 4.14535 23.2354 4.50342C23.0921 4.84359 23.0205 5.27327 23.0205 5.79248V36.2197ZM23.5576 0.851074C28.7497 0.851074 32.5632 1.66569 34.998 3.29492C37.4508 4.90625 38.6772 7.26058 38.6772 10.3579C38.6772 11.1278 38.5877 11.835 38.4087 12.4795C38.2476 13.124 38.0327 13.7148 37.7642 14.252C37.4956 14.7712 37.1912 15.2367 36.8511 15.6484C36.5109 16.0602 36.1618 16.4183 35.8037 16.7227C34.9622 17.4567 34.0133 18.0296 32.957 18.4414V18.8442C34.6221 19.0412 36.117 19.5425 37.4419 20.3481C37.9969 20.6883 38.543 21.118 39.0801 21.6372C39.6172 22.1385 40.0916 22.7562 40.5034 23.4902C40.9331 24.2064 41.2733 25.0479 41.5239 26.0146C41.7925 26.9635 41.9268 28.0557 41.9268 29.291C41.9268 31.1709 41.5866 32.8628 40.9062 34.3667C40.2259 35.8706 39.2144 37.1507 37.8716 38.207C36.5288 39.2454 34.8548 40.0422 32.8496 40.5972C30.8444 41.1522 28.5169 41.4297 25.8672 41.4297C23.4144 41.4297 21.4181 41.2775 19.8784 40.9731C18.3387 40.6688 17.1392 40.2301 16.2798 39.6572C15.4204 39.0664 14.8296 38.3592 14.5073 37.5356C14.203 36.7121 14.0508 35.7811 14.0508 34.7427V5.36279C14.0508 4.37809 13.3704 3.88574 12.0098 3.88574C11.0251 3.88574 10.0225 4.03792 9.00195 4.34229C7.99935 4.62874 7.08626 5.03158 6.2627 5.55078C5.45703 6.05208 4.7946 6.66081 4.27539 7.37695C3.75618 8.0752 3.49658 8.8361 3.49658 9.65967C3.49658 10.2326 3.5682 10.6891 3.71143 11.0293C3.87256 11.3695 4.0516 11.6291 4.24854 11.8081C4.44548 11.9692 4.64242 12.0767 4.83936 12.1304C5.0542 12.1662 5.20638 12.1841 5.2959 12.1841C5.74349 12.1841 6.11051 12.1125 6.39697 11.9692C6.68343 11.8081 6.94303 11.647 7.17578 11.4858C7.40853 11.3068 7.62337 11.1457 7.82031 11.0024C8.03516 10.8413 8.27686 10.7607 8.54541 10.7607C8.76025 10.7607 8.98405 10.8145 9.2168 10.9219C9.46745 11.0114 9.69124 11.1636 9.88818 11.3784C10.103 11.5933 10.2821 11.8797 10.4253 12.2378C10.5685 12.578 10.6401 12.9987 10.6401 13.5C10.6401 14.2161 10.4969 14.8338 10.2104 15.353C9.94189 15.8722 9.58382 16.3109 9.13623 16.6689C8.70654 17.0091 8.20524 17.2687 7.63232 17.4478C7.07731 17.6089 6.5223 17.6895 5.96729 17.6895C5.10791 17.6895 4.3291 17.5462 3.63086 17.2598C2.95052 16.9554 2.36865 16.5436 1.88525 16.0244C1.40186 15.5052 1.03483 14.8965 0.78418 14.1982C0.533529 13.5 0.408203 12.757 0.408203 11.9692C0.408203 10.4832 0.68571 9.17627 1.24072 8.04834C1.79574 6.90251 2.57454 5.91781 3.57715 5.09424C4.59766 4.27067 5.8151 3.59033 7.22949 3.05322C8.64388 2.49821 10.2104 2.05957 11.9292 1.7373C13.6479 1.41504 15.4831 1.19124 17.4346 1.06592C19.404 0.922689 21.445 0.851074 23.5576 0.851074Z" fill="black"/>
</svg>
